HIERARCHY
ROOT Hips
{
	OFFSET 0.00000 0.00000 0.00000
	CHANNELS 6 Xposition Yposition Zposition Yrotation Zrotation Xrotation 
	JOINT Lumbar
	{
		OFFSET 0 0 0
		CHANNELS 3 Zrotation Xrotation Yrotation
		JOINT Neck
		{
			OFFSET 0.00 0.2701 0.00
			CHANNELS 3 Zrotation Xrotation Yrotation
			End Site
			{
				OFFSET 0.00 0.1379 0.00
			}
		}
		JOINT RightShoulder
		{
			OFFSET 0.0119 0.2289 0.1181
			CHANNELS 3 Zrotation Xrotation Yrotation
			JOINT RightElbow
			{
				OFFSET 0.00 -0.1475 0.00
				CHANNELS 2 Zrotation Yrotation
				JOINT RightWrist
				{
					OFFSET 0.00 -0.1605 0.00
					CHANNELS 2 Zrotation Xrotation
					End Site
					{
						OFFSET 0.0040 -0.1068 0.0006
					}
				}
			}
		}
		JOINT LeftShoulder
		{
			OFFSET 0.0119 0.2289 -0.1181
			CHANNELS 3 Zrotation Xrotation Yrotation
			JOINT LeftElbow
			{
				OFFSET 0.00 -0.1475 0.00
				CHANNELS 2 Zrotation Yrotation
				JOINT LeftWrist
				{
					OFFSET 0.00 -0.1605 0.00
					CHANNELS 2 Zrotation Xrotation
					End Site
					{
						OFFSET 0.0040 -0.1068 -0.0006
					}
				}
			}
		}
	}
	JOINT RightHip
	{
		OFFSET 0.0316 -0.0424 0.0458
		CHANNELS 3 Zrotation Xrotation Yrotation
		JOINT RightKnee
		{
			OFFSET 0.00 -0.2438 0.00
			CHANNELS 1 Zrotation
			JOINT RightAnkle
			{
				OFFSET 0.00 -0.2449 0.00
				CHANNELS 3 Zrotation Xrotation Yrotation
				End Site
				{
					OFFSET 0.1237 -0.0542 0.0051
				}
			}
		}
	}
	JOINT LeftHip
	{
		OFFSET 0.0316 -0.0424 -0.0458
		CHANNELS 3 Zrotation Xrotation Yrotation
		JOINT LeftKnee
		{
			OFFSET 0.00 -0.2438 0.00
			CHANNELS 1 Zrotation
			JOINT LeftAnkle
			{
				OFFSET 0.00 -0.2449 0.00
				CHANNELS 3 Zrotation Xrotation Yrotation
				End Site
				{
					OFFSET 0.1237 -0.0542 -0.0051
				}
			}
		}
	}
}
MOTION
Frames: 31
Frame Time: 0.02
-1e-05 -1e-05 -0.00014 24.55861 -21.85572 -7.07751 45.4992 2.15623 -4.18774 -6.1177 -2.37444 -0.41131 -14.48168 -3.58624 7.37945 28.32175 75.86288 2.20014 -3.79666 -16.46974 5.98991 -6.46349 28.99852 -115.8634 16.17103 -3.96799 33.79569 -1.27276 -11.71994 -20.95321 -8.02636 -3.52407 -3.98745 36.89971 8.24979 5.37851 -26.99602 -8.3468 3.46932 3.98999
-3e-05 -2e-05 -7e-05 24.55008 -21.85861 -7.07661 45.48649 2.15624 -4.20058 -6.11602 -2.37281 -0.41186 -14.47534 -3.51088 7.08779 28.31877 78.08276 2.57516 -3.03183 -16.44178 5.97013 -6.44766 28.97535 -115.78311 16.16449 -4.01527 33.79875 -1.29733 -11.89295 -20.95157 -8.0064 -3.49938 -3.9766 36.90352 8.28718 5.5112 -26.99503 -8.33533 3.45366 3.9838
-4e-05 -2e-05 0 24.54154 -21.86153 -7.07571 45.47385 2.15624 -4.21339 -6.11435 -2.37118 -0.41241 -14.46899 -3.43581 6.79736 28.31579 80.29312 2.94855 -2.27027 -16.41388 5.9504 -6.43191 28.95225 -115.70355 16.15801 -4.06245 33.80187 -1.32178 -12.06526 -20.94994 -7.98652 -3.47478 -3.9658 36.90736 8.32455 5.64381 -26.99406 -8.32388 3.43802 3.97761
-6e-05 -3e-05 7e-05 24.53303 -21.86442 -7.07482 45.46118 2.15624 -4.22619 -6.11268 -2.36955 -0.41296 -14.46267 -3.36069 6.50668 28.31282 82.50553 3.32231 -1.50801 -16.386 5.93067 -6.41613 28.92915 -115.62359 16.15149 -4.10959 33.80494 -1.34626 -12.2377 -20.94831 -7.96662 -3.45018 -3.95498 36.91117 8.36184 5.77615 -26.99308 -8.31244 3.4224 3.97144
-8e-05 -3e-05 0.00015 24.52456 -21.86726 -7.07391 45.44844 2.15626 -4.239 -6.111 -2.36791 -0.41351 -14.45635 -3.28523 6.21459 28.30985 84.729 3.69798 -0.74193 -16.35807 5.9109 -6.40028 28.906 -115.54268 16.14489 -4.15681 33.80791 -1.37089 -12.41091 -20.94666 -7.94665 -3.42548 -3.94413 36.91493 8.39911 5.90843 -26.99208 -8.301 3.40677 3.96526
-9e-05 -4e-05 0.00022 24.51588 -21.87036 -7.07304 45.43601 2.15622 -4.25181 -6.10934 -2.36629 -0.41406 -14.44995 -3.211 5.92762 28.30684 86.912 4.0666 0.01018 -16.33025 5.89125 -6.38475 28.88299 -115.46595 16.13864 -4.2039 33.81133 -1.39496 -12.58135 -20.9451 -7.92694 -3.40108 -3.93342 36.91893 8.43669 6.04171 -26.99114 -8.28953 3.39111 3.95905
-0.00011 -4e-05 0.00029 24.50761 -21.87294 -7.07209 45.42298 2.15629 -4.26463 -6.10765 -2.36464 -0.41461 -14.44372 -3.13442 5.63086 28.3039 89.17241 4.44873 0.78901 -16.30223 5.87138 -6.36858 28.85972 -115.381 16.13172 -4.2512 33.81388 -1.42011 -12.7571 -20.94336 -7.90674 -3.37611 -3.92243 36.92247 8.47361 6.17287 -26.9901 -8.27812 3.37553 3.95292
-0.00013 -5e-05 0.00037 24.49897 -21.87597 -7.07121 45.41046 2.15626 -4.27742 -6.10599 -2.36303 -0.41516 -14.43735 -3.05993 5.34279 28.30093 91.36442 4.81892 1.54422 -16.2744 5.85171 -6.35298 28.83669 -115.30343 16.1254 -4.2983 33.81718 -1.44429 -12.92809 -20.94178 -7.88698 -3.35166 -3.91169 36.92639 8.51111 6.3059 -26.98915 -8.26667 3.35988 3.94672
-0.00014 -5e-05 0.00044 24.48986 -21.87969 -7.07046 45.39871 2.15613 -4.29025 -6.10433 -2.36141 -0.41571 -14.43072 -2.98827 5.06661 28.29779 93.4614 5.17249 2.26667 -16.24674 5.83226 -6.33815 28.81393 -115.23573 16.11988 -4.3452 33.82163 -1.46718 -13.09276 -20.94041 -7.86779 -3.32786 -3.90131 36.93097 8.54946 6.44169 -26.98833 -8.25512 3.34412 3.9404
-0.00016 -6e-05 0.00051 24.48341 -21.87988 -7.06908 45.38298 2.15661 -4.30306 -6.10257 -2.35969 -0.41627 -14.42533 -2.90117 4.72582 28.29523 96.07085 5.6156 3.16593 -16.21795 5.81149 -6.31913 28.78954 -115.1138 16.10993 -4.39341 33.82014 -1.49719 -13.2923 -20.93789 -7.8454 -3.30037 -3.88899 36.93232 8.58336 6.56304 -26.98682 -8.24399 3.3289 3.93468
-0.00017 -6e-05 0.00059 24.47136 -21.88721 -7.06898 45.37539 2.15578 -4.31577 -6.10109 -2.35826 -0.4168 -14.4175 -2.84608 4.51888 28.29168 97.62109 5.87372 3.69966 -16.19164 5.79356 -6.3088 28.76866 -115.1046 16.10921 -4.43876 33.83076 -1.51238 -13.41921 -20.93773 -7.8297 -3.28062 -3.88071 36.94012 8.62636 6.71386 -26.98671 -8.23204 3.31263 3.92775
-0.00014 -6e-05 0.00067 24.44377 -21.9169 -7.07289 45.39239 2.15158 -4.32929 -6.09975 -2.35686 -0.41724 -14.40147 -2.88453 4.70368 28.28369 96.05063 5.5861 3.15702 -16.17146 5.78299 -6.32418 28.7573 -115.4213 16.13509 -4.47694 33.87854 -1.48471 -13.33704 -20.94477 -7.83301 -3.28282 -3.88401 36.96891 8.69695 6.95442 -26.99115 -8.21718 3.29268 3.91707
-0.00011 -4e-05 0.00075 24.41062 -21.95328 -7.07804 45.41713 2.14604 -4.3425 -6.09881 -2.35585 -0.41764 -14.38326 -2.95417 5.01869 28.27504 93.45326 5.11928 2.25987 -16.15392 5.77541 -6.34818 28.74969 -115.8478 16.16998 -4.51205 33.9378 -1.44255 -13.18373 -20.95405 -7.84292 -3.29265 -3.89128 37.00362 8.77615 7.22264 -26.99688 -8.20161 3.27182 3.90527
-7e-05 -3e-05 0.00083 24.38008 -21.98476 -7.08226 45.43684 2.141 -4.35511 -6.09811 -2.35519 -0.41805 -14.36704 -3.00563 5.25771 28.26778 91.4694 4.75999 1.57413 -16.13562 5.76665 -6.36675 28.74022 -116.21364 16.19995 -4.54827 33.9892 -1.40846 -13.06934 -20.96184 -7.84937 -3.29851 -3.8964 37.03337 8.84975 7.47277 -27.00157 -8.18676 3.2519 3.89427
-4e-05 -3e-05 0.00092 24.34904 -22.02398 -7.08789 45.46297 2.13643 -4.37083 -6.09562 -2.35245 -0.41851 -14.34663 -3.07353 5.56655 28.25583 88.87586 4.29224 0.6796 -16.11542 5.75685 -6.39081 28.73065 -116.62647 16.23351 -4.58608 34.05164 -1.36814 -12.92698 -20.97161 -7.85775 -3.30651 -3.90298 37.07245 8.93067 7.74744 -27.00816 -8.17015 3.22976 3.882
-0 -1e-05 0.00099 24.31793 -22.04882 -7.09103 45.47755 2.13052 -4.38 -6.09695 -2.35395 -0.41887 -14.33442 -3.11525 5.7626 28.25361 87.29344 4.00535 0.13055 -16.09987 5.75029 -6.40663 28.72315 -116.96575 16.26164 -4.61935 34.09401 -1.33726 -12.826 -20.97779 -7.86371 -3.31186 -3.90748 37.09383 8.99814 7.9761 -27.01111 -8.15711 3.21205 3.87215
4e-05 -0 0.00103 24.28632 -22.031 -7.08584 45.45826 2.12158 -4.37098 -6.10883 -2.36847 -0.41895 -14.34517 -3.07146 5.5994 28.27737 88.89126 4.28475 0.67018 -16.09592 5.74921 -6.38804 28.71283 -117.08739 16.27313 -4.64467 34.0765 -1.33714 -12.85743 -20.97367 -7.86112 -3.3081 -3.90504 37.06197 9.02855 8.08396 -27.00357 -8.1536 3.20662 3.86899
9e-05 1e-05 0.00106 24.2552 -21.99877 -7.07833 45.42701 2.11125 -4.35535 -6.12454 -2.38688 -0.41897 -14.36418 -3.00134 5.321 28.31106 91.51736 4.74824 1.56109 -16.09663 5.75196 -6.36293 28.70635 -117.1276 16.27862 -4.66455 34.0388 -1.34684 -12.93294 -20.96584 -7.85593 -3.3014 -3.90041 37.01272 9.04483 8.14259 -26.99233 -8.1538 3.20571 3.86834
0.00013 3e-05 0.00109 24.22493 -21.97396 -7.07264 45.40142 2.10137 -4.34294 -6.13838 -2.40271 -0.41904 -14.37971 -2.94682 5.10589 28.34105 93.5826 5.11225 2.25959 -16.09566 5.75455 -6.34669 28.70258 -117.19863 16.28666 -4.68475 34.01129 -1.35132 -12.98768 -20.95963 -7.85212 -3.296 -3.89692 36.97319 9.06599 8.21467 -26.98286 -8.15262 3.20288 3.86674
0.00019 4e-05 0.00111 24.18979 -21.94555 -7.06371 45.37553 2.09232 -4.32983 -6.15264 -2.42236 -0.41897 -14.39451 -2.87775 4.84963 28.36801 96.00491 5.53625 3.08324 -16.09313 5.74992 -6.30462 28.67832 -117.30492 16.29628 -4.71502 33.97952 -1.35844 -13.04266 -20.95379 -7.84769 -3.291 -3.89297 36.92579 9.09348 8.32357 -26.97307 -8.15013 3.1995 3.86435
0.00022 6e-05 0.00116 24.16518 -21.92134 -7.06104 45.34687 2.08112 -4.31632 -6.16711 -2.43448 -0.41921 -14.4122 -2.83272 4.64946 28.40311 97.94363 5.88201 3.73527 -16.09466 5.76201 -6.3162 28.69988 -117.31032 16.30041 -4.72171 33.95217 -1.36262 -13.109 -20.94627 -7.84385 -3.28438 -3.88939 36.89107 9.10491 8.34602 -26.96303 -8.15125 3.1983 3.86417
0.00021 0.00012 0.00124 24.168 -21.91015 -7.07552 45.31675 2.06515 -4.30587 -6.17981 -2.42912 -0.42005 -14.44069 -2.85713 4.63645 28.46244 98.28 5.96217 3.82109 -16.10773 5.81242 -6.46448 28.82661 -117.11608 16.2969 -4.67645 33.93754 -1.35607 -13.19239 -20.93479 -7.84207 -3.27391 -3.88765 36.89141 9.07028 8.12196 -26.95347 -8.16162 3.20236 3.86997
0.00017 0.00019 0.00135 24.18177 -21.90395 -7.09648 45.28326 2.0469 -4.29479 -6.19284 -2.41531 -0.4213 -14.47064 -2.90715 4.68232 28.52857 98.10349 5.9591 3.72535 -16.12395 5.88071 -6.66923 29.00255 -116.81329 16.28714 -4.6058 33.92879 -1.34635 -13.28675 -20.92175 -7.84097 -3.26187 -3.88631 36.90586 9.02087 7.81616 -26.94372 -8.17547 3.20838 3.8778
0.00013 0.00026 0.00145 24.19147 -21.89691 -7.11493 45.24959 2.02915 -4.2823 -6.2067 -2.40247 -0.42245 -14.49712 -2.94752 4.6981 28.58917 98.17548 5.99783 3.71835 -16.13834 5.94547 -6.85683 29.17004 -116.51869 16.27597 -4.53858 33.92019 -1.33825 -13.37871 -20.90954 -7.83964 -3.25056 -3.88457 36.9166 8.98162 7.56069 -26.93391 -8.18766 3.21331 3.88438
0.00014 0.00033 0.00153 24.19712 -21.8837 -7.13156 45.22418 2.01362 -4.27666 -6.21669 -2.40163 -0.423 -14.5369 -2.97852 4.72462 28.66153 98.2125 6.02556 3.69586 -16.15651 5.9914 -7.00886 29.28122 -116.3878 16.28164 -4.50396 33.89907 -1.32963 -13.46106 -20.89673 -7.83786 -3.2391 -3.88363 36.91538 8.92746 7.24794 -26.92467 -8.20038 3.21934 3.89249
3e-05 0.00039 0.00167 24.2141 -21.88428 -7.15345 45.17908 1.99294 -4.25676 -6.2346 -2.37407 -0.42519 -14.54774 -3.03554 4.74348 28.70952 98.19369 6.05472 3.6595 -16.16504 6.08022 -7.24772 29.51844 -115.90028 16.25198 -4.39725 33.90558 -1.32135 -13.56571 -20.88482 -7.83724 -3.22762 -3.88118 36.94261 8.90087 7.03564 -26.91414 -8.21269 3.22337 3.89781
-0.00034 0.00044 0.00196 24.25705 -21.92593 -7.18919 45.09618 1.95873 -4.1972 -6.27569 -2.27192 -0.42926 -14.49091 -3.15784 4.73393 28.7007 98.08641 6.10166 3.61497 -16.16698 6.28741 -7.71908 30.116 -114.3778 16.11668 -4.08283 33.98853 -1.31348 -13.72619 -20.87614 -7.83943 -3.21646 -3.8742 37.04605 8.95537 7.12159 -26.90117 -8.2238 3.2223 3.89538
-0.00083 0.00048 0.00232 24.31145 -21.98085 -7.22987 44.99068 1.91943 -4.12342 -6.32448 -2.14382 -0.43543 -14.40253 -3.30571 4.71403 28.66532 97.94578 6.15311 3.56343 -16.15498 6.53628 -8.27467 30.83377 -112.51581 15.94802 -3.69974 34.09938 -1.3062 -13.90855 -20.86844 -7.84285 -3.2054 -3.86576 37.17798 9.03792 7.31153 -26.88679 -8.23422 3.21895 3.88997
-0.00128 0.00052 0.00266 24.36243 -22.02665 -7.26773 44.88532 1.88238 -4.05646 -6.36876 -2.02928 -0.44236 -14.32026 -3.4421 4.69454 28.63344 97.85578 6.20598 3.52306 -16.136 6.76322 -8.78746 31.48102 -110.85878 15.8008 -3.35758 34.19589 -1.29953 -14.08334 -20.85999 -7.84581 -3.19426 -3.85812 37.29565 9.10681 7.45355 -26.8723 -8.24441 3.21603 3.88563
-0.00165 0.00058 0.00295 24.40653 -22.08451 -7.3082 44.82274 1.84543 -3.98796 -6.41718 -1.90639 -0.44216 -14.27269 -3.57845 4.69451 28.63588 97.60271 6.24183 3.44393 -16.17431 7.00349 -9.32136 32.19865 -108.98019 15.62627 -2.97262 34.29756 -1.28932 -14.25066 -20.85248 -7.84821 -3.18301 -3.84982 37.41749 9.17907 7.59551 -26.86072 -8.25696 3.21576 3.88257
-0.00224 0.0006 0.00335 24.46721 -22.12176 -7.34436 44.66556 1.8072 -3.91929 -6.45899 -1.79558 -0.45718 -14.14547 -3.72104 4.65156 28.56309 97.68297 6.31474 3.44487 -16.08875 7.22556 -9.83047 32.79564 -107.48869 15.50151 -2.66189 34.39761 -1.28631 -14.43591 -20.84365 -7.85227 -3.17227 -3.84266 37.53956 9.2511 7.76332 -26.84303 -8.26446 3.20936 3.87611
